<?xml version="1.0" encoding="utf-8" standalone="no"?>
<!DOCTYPE svg PUBLIC "-//W3C//DTD SVG 1.1//EN"
  "http://www.w3.org/Graphics/SVG/1.1/DTD/svg11.dtd">
<svg xmlns:xlink="http://www.w3.org/1999/xlink" width="360pt" height="360pt" viewBox="0 0 360 360" xmlns="http://www.w3.org/2000/svg" version="1.1">
 <metadata>
  <rdf:RDF xmlns:dc="http://purl.org/dc/elements/1.1/" xmlns:cc="http://creativecommons.org/ns#" xmlns:rdf="http://www.w3.org/1999/02/22-rdf-syntax-ns#">
   <cc:Work>
    <dc:type rdf:resource="http://purl.org/dc/dcmitype/StillImage"/>
    <dc:date>2022-12-14T17:39:55.025607</dc:date>
    <dc:format>image/svg+xml</dc:format>
    <dc:creator>
     <cc:Agent>
      <dc:title>Matplotlib v3.6.0, https://matplotlib.org/</dc:title>
     </cc:Agent>
    </dc:creator>
   </cc:Work>
  </rdf:RDF>
 </metadata>
 <defs>
  <style type="text/css">*{stroke-linejoin: round; stroke-linecap: butt}</style>
 </defs>
 <g id="figure_1">
  <g id="patch_1">
   <path d="M 0 360 
L 360 360 
L 360 0 
L 0 0 
z
" style="fill: #ffffff"/>
  </g>
  <g id="axes_1">
   <g id="patch_2">
    <path d="M 45 320.4 
L 324 320.4 
L 324 43.2 
L 45 43.2 
z
" style="fill: #ffffff"/>
   </g>
   <g id="matplotlib.axis_1">
    <g id="xtick_1">
     <g id="line2d_1">
      <defs>
       <path id="m838614c139" d="M 0 0 
L 0 3.5 
" style="stroke: #000000; stroke-width: 0.8"/>
      </defs>
      <g>
       <use xlink:href="#m838614c139" x="57.681818" y="320.4" style="stroke: #000000; stroke-width: 0.8"/>
      </g>
     </g>
     <g id="text_1">
      <!-- 0 -->
      <g transform="translate(54.500568 334.998438) scale(0.1 -0.1)">
       <defs>
        <path id="DejaVuSans-30" d="M 2034 4250 
Q 1547 4250 1301 3770 
Q 1056 3291 1056 2328 
Q 1056 1369 1301 889 
Q 1547 409 2034 409 
Q 2525 409 2770 889 
Q 3016 1369 3016 2328 
Q 3016 3291 2770 3770 
Q 2525 4250 2034 4250 
z
M 2034 4750 
Q 2819 4750 3233 4129 
Q 3647 3509 3647 2328 
Q 3647 1150 3233 529 
Q 2819 -91 2034 -91 
Q 1250 -91 836 529 
Q 422 1150 422 2328 
Q 422 3509 836 4129 
Q 1250 4750 2034 4750 
z
" transform="scale(0.015625)"/>
       </defs>
       <use xlink:href="#DejaVuSans-30"/>
      </g>
     </g>
    </g>
    <g id="xtick_2">
     <g id="line2d_2">
      <g>
       <use xlink:href="#m838614c139" x="100.095926" y="320.4" style="stroke: #000000; stroke-width: 0.8"/>
      </g>
     </g>
     <g id="text_2">
      <!-- 50 -->
      <g transform="translate(93.733426 334.998438) scale(0.1 -0.1)">
       <defs>
        <path id="DejaVuSans-35" d="M 691 4666 
L 3169 4666 
L 3169 4134 
L 1269 4134 
L 1269 2991 
Q 1406 3038 1543 3061 
Q 1681 3084 1819 3084 
Q 2600 3084 3056 2656 
Q 3513 2228 3513 1497 
Q 3513 744 3044 326 
Q 2575 -91 1722 -91 
Q 1428 -91 1123 -41 
Q 819 9 494 109 
L 494 744 
Q 775 591 1075 516 
Q 1375 441 1709 441 
Q 2250 441 2565 725 
Q 2881 1009 2881 1497 
Q 2881 1984 2565 2268 
Q 2250 2553 1709 2553 
Q 1456 2553 1204 2497 
Q 953 2441 691 2322 
L 691 4666 
z
" transform="scale(0.015625)"/>
       </defs>
       <use xlink:href="#DejaVuSans-35"/>
       <use xlink:href="#DejaVuSans-30" x="63.623047"/>
      </g>
     </g>
    </g>
    <g id="xtick_3">
     <g id="line2d_3">
      <g>
       <use xlink:href="#m838614c139" x="142.510033" y="320.4" style="stroke: #000000; stroke-width: 0.8"/>
      </g>
     </g>
     <g id="text_3">
      <!-- 100 -->
      <g transform="translate(132.966283 334.998438) scale(0.1 -0.1)">
       <defs>
        <path id="DejaVuSans-31" d="M 794 531 
L 1825 531 
L 1825 4091 
L 703 3866 
L 703 4441 
L 1819 4666 
L 2450 4666 
L 2450 531 
L 3481 531 
L 3481 0 
L 794 0 
L 794 531 
z
" transform="scale(0.015625)"/>
       </defs>
       <use xlink:href="#DejaVuSans-31"/>
       <use xlink:href="#DejaVuSans-30" x="63.623047"/>
       <use xlink:href="#DejaVuSans-30" x="127.246094"/>
      </g>
     </g>
    </g>
    <g id="xtick_4">
     <g id="line2d_4">
      <g>
       <use xlink:href="#m838614c139" x="184.924141" y="320.4" style="stroke: #000000; stroke-width: 0.8"/>
      </g>
     </g>
     <g id="text_4">
      <!-- 150 -->
      <g transform="translate(175.380391 334.998438) scale(0.1 -0.1)">
       <use xlink:href="#DejaVuSans-31"/>
       <use xlink:href="#DejaVuSans-35" x="63.623047"/>
       <use xlink:href="#DejaVuSans-30" x="127.246094"/>
      </g>
     </g>
    </g>
    <g id="xtick_5">
     <g id="line2d_5">
      <g>
       <use xlink:href="#m838614c139" x="227.338249" y="320.4" style="stroke: #000000; stroke-width: 0.8"/>
      </g>
     </g>
     <g id="text_5">
      <!-- 200 -->
      <g transform="translate(217.794499 334.998438) scale(0.1 -0.1)">
       <defs>
        <path id="DejaVuSans-32" d="M 1228 531 
L 3431 531 
L 3431 0 
L 469 0 
L 469 531 
Q 828 903 1448 1529 
Q 2069 2156 2228 2338 
Q 2531 2678 2651 2914 
Q 2772 3150 2772 3378 
Q 2772 3750 2511 3984 
Q 2250 4219 1831 4219 
Q 1534 4219 1204 4116 
Q 875 4013 500 3803 
L 500 4441 
Q 881 4594 1212 4672 
Q 1544 4750 1819 4750 
Q 2544 4750 2975 4387 
Q 3406 4025 3406 3419 
Q 3406 3131 3298 2873 
Q 3191 2616 2906 2266 
Q 2828 2175 2409 1742 
Q 1991 1309 1228 531 
z
" transform="scale(0.015625)"/>
       </defs>
       <use xlink:href="#DejaVuSans-32"/>
       <use xlink:href="#DejaVuSans-30" x="63.623047"/>
       <use xlink:href="#DejaVuSans-30" x="127.246094"/>
      </g>
     </g>
    </g>
    <g id="xtick_6">
     <g id="line2d_6">
      <g>
       <use xlink:href="#m838614c139" x="269.752356" y="320.4" style="stroke: #000000; stroke-width: 0.8"/>
      </g>
     </g>
     <g id="text_6">
      <!-- 250 -->
      <g transform="translate(260.208606 334.998438) scale(0.1 -0.1)">
       <use xlink:href="#DejaVuSans-32"/>
       <use xlink:href="#DejaVuSans-35" x="63.623047"/>
       <use xlink:href="#DejaVuSans-30" x="127.246094"/>
      </g>
     </g>
    </g>
    <g id="xtick_7">
     <g id="line2d_7">
      <g>
       <use xlink:href="#m838614c139" x="312.166464" y="320.4" style="stroke: #000000; stroke-width: 0.8"/>
      </g>
     </g>
     <g id="text_7">
      <!-- 300 -->
      <g transform="translate(302.622714 334.998438) scale(0.1 -0.1)">
       <defs>
        <path id="DejaVuSans-33" d="M 2597 2516 
Q 3050 2419 3304 2112 
Q 3559 1806 3559 1356 
Q 3559 666 3084 287 
Q 2609 -91 1734 -91 
Q 1441 -91 1130 -33 
Q 819 25 488 141 
L 488 750 
Q 750 597 1062 519 
Q 1375 441 1716 441 
Q 2309 441 2620 675 
Q 2931 909 2931 1356 
Q 2931 1769 2642 2001 
Q 2353 2234 1838 2234 
L 1294 2234 
L 1294 2753 
L 1863 2753 
Q 2328 2753 2575 2939 
Q 2822 3125 2822 3475 
Q 2822 3834 2567 4026 
Q 2313 4219 1838 4219 
Q 1578 4219 1281 4162 
Q 984 4106 628 3988 
L 628 4550 
Q 988 4650 1302 4700 
Q 1616 4750 1894 4750 
Q 2613 4750 3031 4423 
Q 3450 4097 3450 3541 
Q 3450 3153 3228 2886 
Q 3006 2619 2597 2516 
z
" transform="scale(0.015625)"/>
       </defs>
       <use xlink:href="#DejaVuSans-33"/>
       <use xlink:href="#DejaVuSans-30" x="63.623047"/>
       <use xlink:href="#DejaVuSans-30" x="127.246094"/>
      </g>
     </g>
    </g>
    <g id="text_8">
     <!-- Num of Iterations -->
     <g transform="translate(140.909375 348.676562) scale(0.1 -0.1)">
      <defs>
       <path id="DejaVuSans-4e" d="M 628 4666 
L 1478 4666 
L 3547 763 
L 3547 4666 
L 4159 4666 
L 4159 0 
L 3309 0 
L 1241 3903 
L 1241 0 
L 628 0 
L 628 4666 
z
" transform="scale(0.015625)"/>
       <path id="DejaVuSans-75" d="M 544 1381 
L 544 3500 
L 1119 3500 
L 1119 1403 
Q 1119 906 1312 657 
Q 1506 409 1894 409 
Q 2359 409 2629 706 
Q 2900 1003 2900 1516 
L 2900 3500 
L 3475 3500 
L 3475 0 
L 2900 0 
L 2900 538 
Q 2691 219 2414 64 
Q 2138 -91 1772 -91 
Q 1169 -91 856 284 
Q 544 659 544 1381 
z
M 1991 3584 
L 1991 3584 
z
" transform="scale(0.015625)"/>
       <path id="DejaVuSans-6d" d="M 3328 2828 
Q 3544 3216 3844 3400 
Q 4144 3584 4550 3584 
Q 5097 3584 5394 3201 
Q 5691 2819 5691 2113 
L 5691 0 
L 5113 0 
L 5113 2094 
Q 5113 2597 4934 2840 
Q 4756 3084 4391 3084 
Q 3944 3084 3684 2787 
Q 3425 2491 3425 1978 
L 3425 0 
L 2847 0 
L 2847 2094 
Q 2847 2600 2669 2842 
Q 2491 3084 2119 3084 
Q 1678 3084 1418 2786 
Q 1159 2488 1159 1978 
L 1159 0 
L 581 0 
L 581 3500 
L 1159 3500 
L 1159 2956 
Q 1356 3278 1631 3431 
Q 1906 3584 2284 3584 
Q 2666 3584 2933 3390 
Q 3200 3197 3328 2828 
z
" transform="scale(0.015625)"/>
       <path id="DejaVuSans-20" transform="scale(0.015625)"/>
       <path id="DejaVuSans-6f" d="M 1959 3097 
Q 1497 3097 1228 2736 
Q 959 2375 959 1747 
Q 959 1119 1226 758 
Q 1494 397 1959 397 
Q 2419 397 2687 759 
Q 2956 1122 2956 1747 
Q 2956 2369 2687 2733 
Q 2419 3097 1959 3097 
z
M 1959 3584 
Q 2709 3584 3137 3096 
Q 3566 2609 3566 1747 
Q 3566 888 3137 398 
Q 2709 -91 1959 -91 
Q 1206 -91 779 398 
Q 353 888 353 1747 
Q 353 2609 779 3096 
Q 1206 3584 1959 3584 
z
" transform="scale(0.015625)"/>
       <path id="DejaVuSans-66" d="M 2375 4863 
L 2375 4384 
L 1825 4384 
Q 1516 4384 1395 4259 
Q 1275 4134 1275 3809 
L 1275 3500 
L 2222 3500 
L 2222 3053 
L 1275 3053 
L 1275 0 
L 697 0 
L 697 3053 
L 147 3053 
L 147 3500 
L 697 3500 
L 697 3744 
Q 697 4328 969 4595 
Q 1241 4863 1831 4863 
L 2375 4863 
z
" transform="scale(0.015625)"/>
       <path id="DejaVuSans-49" d="M 628 4666 
L 1259 4666 
L 1259 0 
L 628 0 
L 628 4666 
z
" transform="scale(0.015625)"/>
       <path id="DejaVuSans-74" d="M 1172 4494 
L 1172 3500 
L 2356 3500 
L 2356 3053 
L 1172 3053 
L 1172 1153 
Q 1172 725 1289 603 
Q 1406 481 1766 481 
L 2356 481 
L 2356 0 
L 1766 0 
Q 1100 0 847 248 
Q 594 497 594 1153 
L 594 3053 
L 172 3053 
L 172 3500 
L 594 3500 
L 594 4494 
L 1172 4494 
z
" transform="scale(0.015625)"/>
       <path id="DejaVuSans-65" d="M 3597 1894 
L 3597 1613 
L 953 1613 
Q 991 1019 1311 708 
Q 1631 397 2203 397 
Q 2534 397 2845 478 
Q 3156 559 3463 722 
L 3463 178 
Q 3153 47 2828 -22 
Q 2503 -91 2169 -91 
Q 1331 -91 842 396 
Q 353 884 353 1716 
Q 353 2575 817 3079 
Q 1281 3584 2069 3584 
Q 2775 3584 3186 3129 
Q 3597 2675 3597 1894 
z
M 3022 2063 
Q 3016 2534 2758 2815 
Q 2500 3097 2075 3097 
Q 1594 3097 1305 2825 
Q 1016 2553 972 2059 
L 3022 2063 
z
" transform="scale(0.015625)"/>
       <path id="DejaVuSans-72" d="M 2631 2963 
Q 2534 3019 2420 3045 
Q 2306 3072 2169 3072 
Q 1681 3072 1420 2755 
Q 1159 2438 1159 1844 
L 1159 0 
L 581 0 
L 581 3500 
L 1159 3500 
L 1159 2956 
Q 1341 3275 1631 3429 
Q 1922 3584 2338 3584 
Q 2397 3584 2469 3576 
Q 2541 3569 2628 3553 
L 2631 2963 
z
" transform="scale(0.015625)"/>
       <path id="DejaVuSans-61" d="M 2194 1759 
Q 1497 1759 1228 1600 
Q 959 1441 959 1056 
Q 959 750 1161 570 
Q 1363 391 1709 391 
Q 2188 391 2477 730 
Q 2766 1069 2766 1631 
L 2766 1759 
L 2194 1759 
z
M 3341 1997 
L 3341 0 
L 2766 0 
L 2766 531 
Q 2569 213 2275 61 
Q 1981 -91 1556 -91 
Q 1019 -91 701 211 
Q 384 513 384 1019 
Q 384 1609 779 1909 
Q 1175 2209 1959 2209 
L 2766 2209 
L 2766 2266 
Q 2766 2663 2505 2880 
Q 2244 3097 1772 3097 
Q 1472 3097 1187 3025 
Q 903 2953 641 2809 
L 641 3341 
Q 956 3463 1253 3523 
Q 1550 3584 1831 3584 
Q 2591 3584 2966 3190 
Q 3341 2797 3341 1997 
z
" transform="scale(0.015625)"/>
       <path id="DejaVuSans-69" d="M 603 3500 
L 1178 3500 
L 1178 0 
L 603 0 
L 603 3500 
z
M 603 4863 
L 1178 4863 
L 1178 4134 
L 603 4134 
L 603 4863 
z
" transform="scale(0.015625)"/>
       <path id="DejaVuSans-6e" d="M 3513 2113 
L 3513 0 
L 2938 0 
L 2938 2094 
Q 2938 2591 2744 2837 
Q 2550 3084 2163 3084 
Q 1697 3084 1428 2787 
Q 1159 2491 1159 1978 
L 1159 0 
L 581 0 
L 581 3500 
L 1159 3500 
L 1159 2956 
Q 1366 3272 1645 3428 
Q 1925 3584 2291 3584 
Q 2894 3584 3203 3211 
Q 3513 2838 3513 2113 
z
" transform="scale(0.015625)"/>
       <path id="DejaVuSans-73" d="M 2834 3397 
L 2834 2853 
Q 2591 2978 2328 3040 
Q 2066 3103 1784 3103 
Q 1356 3103 1142 2972 
Q 928 2841 928 2578 
Q 928 2378 1081 2264 
Q 1234 2150 1697 2047 
L 1894 2003 
Q 2506 1872 2764 1633 
Q 3022 1394 3022 966 
Q 3022 478 2636 193 
Q 2250 -91 1575 -91 
Q 1294 -91 989 -36 
Q 684 19 347 128 
L 347 722 
Q 666 556 975 473 
Q 1284 391 1588 391 
Q 1994 391 2212 530 
Q 2431 669 2431 922 
Q 2431 1156 2273 1281 
Q 2116 1406 1581 1522 
L 1381 1569 
Q 847 1681 609 1914 
Q 372 2147 372 2553 
Q 372 3047 722 3315 
Q 1072 3584 1716 3584 
Q 2034 3584 2315 3537 
Q 2597 3491 2834 3397 
z
" transform="scale(0.015625)"/>
      </defs>
      <use xlink:href="#DejaVuSans-4e"/>
      <use xlink:href="#DejaVuSans-75" x="74.804688"/>
      <use xlink:href="#DejaVuSans-6d" x="138.183594"/>
      <use xlink:href="#DejaVuSans-20" x="235.595703"/>
      <use xlink:href="#DejaVuSans-6f" x="267.382812"/>
      <use xlink:href="#DejaVuSans-66" x="328.564453"/>
      <use xlink:href="#DejaVuSans-20" x="363.769531"/>
      <use xlink:href="#DejaVuSans-49" x="395.556641"/>
      <use xlink:href="#DejaVuSans-74" x="425.048828"/>
      <use xlink:href="#DejaVuSans-65" x="464.257812"/>
      <use xlink:href="#DejaVuSans-72" x="525.78125"/>
      <use xlink:href="#DejaVuSans-61" x="566.894531"/>
      <use xlink:href="#DejaVuSans-74" x="628.173828"/>
      <use xlink:href="#DejaVuSans-69" x="667.382812"/>
      <use xlink:href="#DejaVuSans-6f" x="695.166016"/>
      <use xlink:href="#DejaVuSans-6e" x="756.347656"/>
      <use xlink:href="#DejaVuSans-73" x="819.726562"/>
     </g>
    </g>
   </g>
   <g id="matplotlib.axis_2">
    <g id="ytick_1">
     <g id="line2d_8">
      <defs>
       <path id="me4805be440" d="M 0 0 
L -3.5 0 
" style="stroke: #000000; stroke-width: 0.8"/>
      </defs>
      <g>
       <use xlink:href="#me4805be440" x="45" y="294.238843" style="stroke: #000000; stroke-width: 0.8"/>
      </g>
     </g>
     <g id="text_9">
      <!-- −6 -->
      <g transform="translate(23.257812 298.038062) scale(0.1 -0.1)">
       <defs>
        <path id="DejaVuSans-2212" d="M 678 2272 
L 4684 2272 
L 4684 1741 
L 678 1741 
L 678 2272 
z
" transform="scale(0.015625)"/>
        <path id="DejaVuSans-36" d="M 2113 2584 
Q 1688 2584 1439 2293 
Q 1191 2003 1191 1497 
Q 1191 994 1439 701 
Q 1688 409 2113 409 
Q 2538 409 2786 701 
Q 3034 994 3034 1497 
Q 3034 2003 2786 2293 
Q 2538 2584 2113 2584 
z
M 3366 4563 
L 3366 3988 
Q 3128 4100 2886 4159 
Q 2644 4219 2406 4219 
Q 1781 4219 1451 3797 
Q 1122 3375 1075 2522 
Q 1259 2794 1537 2939 
Q 1816 3084 2150 3084 
Q 2853 3084 3261 2657 
Q 3669 2231 3669 1497 
Q 3669 778 3244 343 
Q 2819 -91 2113 -91 
Q 1303 -91 875 529 
Q 447 1150 447 2328 
Q 447 3434 972 4092 
Q 1497 4750 2381 4750 
Q 2619 4750 2861 4703 
Q 3103 4656 3366 4563 
z
" transform="scale(0.015625)"/>
       </defs>
       <use xlink:href="#DejaVuSans-2212"/>
       <use xlink:href="#DejaVuSans-36" x="83.789062"/>
      </g>
     </g>
    </g>
    <g id="ytick_2">
     <g id="line2d_9">
      <g>
       <use xlink:href="#me4805be440" x="45" y="255.735808" style="stroke: #000000; stroke-width: 0.8"/>
      </g>
     </g>
     <g id="text_10">
      <!-- −5 -->
      <g transform="translate(23.257812 259.535026) scale(0.1 -0.1)">
       <use xlink:href="#DejaVuSans-2212"/>
       <use xlink:href="#DejaVuSans-35" x="83.789062"/>
      </g>
     </g>
    </g>
    <g id="ytick_3">
     <g id="line2d_10">
      <g>
       <use xlink:href="#me4805be440" x="45" y="217.232772" style="stroke: #000000; stroke-width: 0.8"/>
      </g>
     </g>
     <g id="text_11">
      <!-- −4 -->
      <g transform="translate(23.257812 221.03199) scale(0.1 -0.1)">
       <defs>
        <path id="DejaVuSans-34" d="M 2419 4116 
L 825 1625 
L 2419 1625 
L 2419 4116 
z
M 2253 4666 
L 3047 4666 
L 3047 1625 
L 3713 1625 
L 3713 1100 
L 3047 1100 
L 3047 0 
L 2419 0 
L 2419 1100 
L 313 1100 
L 313 1709 
L 2253 4666 
z
" transform="scale(0.015625)"/>
       </defs>
       <use xlink:href="#DejaVuSans-2212"/>
       <use xlink:href="#DejaVuSans-34" x="83.789062"/>
      </g>
     </g>
    </g>
    <g id="ytick_4">
     <g id="line2d_11">
      <g>
       <use xlink:href="#me4805be440" x="45" y="178.729736" style="stroke: #000000; stroke-width: 0.8"/>
      </g>
     </g>
     <g id="text_12">
      <!-- −3 -->
      <g transform="translate(23.257812 182.528955) scale(0.1 -0.1)">
       <use xlink:href="#DejaVuSans-2212"/>
       <use xlink:href="#DejaVuSans-33" x="83.789062"/>
      </g>
     </g>
    </g>
    <g id="ytick_5">
     <g id="line2d_12">
      <g>
       <use xlink:href="#me4805be440" x="45" y="140.2267" style="stroke: #000000; stroke-width: 0.8"/>
      </g>
     </g>
     <g id="text_13">
      <!-- −2 -->
      <g transform="translate(23.257812 144.025919) scale(0.1 -0.1)">
       <use xlink:href="#DejaVuSans-2212"/>
       <use xlink:href="#DejaVuSans-32" x="83.789062"/>
      </g>
     </g>
    </g>
    <g id="ytick_6">
     <g id="line2d_13">
      <g>
       <use xlink:href="#me4805be440" x="45" y="101.723664" style="stroke: #000000; stroke-width: 0.8"/>
      </g>
     </g>
     <g id="text_14">
      <!-- −1 -->
      <g transform="translate(23.257812 105.522883) scale(0.1 -0.1)">
       <use xlink:href="#DejaVuSans-2212"/>
       <use xlink:href="#DejaVuSans-31" x="83.789062"/>
      </g>
     </g>
    </g>
    <g id="ytick_7">
     <g id="line2d_14">
      <g>
       <use xlink:href="#me4805be440" x="45" y="63.220628" style="stroke: #000000; stroke-width: 0.8"/>
      </g>
     </g>
     <g id="text_15">
      <!-- 0 -->
      <g transform="translate(31.6375 67.019847) scale(0.1 -0.1)">
       <use xlink:href="#DejaVuSans-30"/>
      </g>
     </g>
    </g>
    <g id="text_16">
     <!-- Loss Value -->
     <g transform="translate(17.178125 208.0875) rotate(-90) scale(0.1 -0.1)">
      <defs>
       <path id="DejaVuSans-4c" d="M 628 4666 
L 1259 4666 
L 1259 531 
L 3531 531 
L 3531 0 
L 628 0 
L 628 4666 
z
" transform="scale(0.015625)"/>
       <path id="DejaVuSans-56" d="M 1831 0 
L 50 4666 
L 709 4666 
L 2188 738 
L 3669 4666 
L 4325 4666 
L 2547 0 
L 1831 0 
z
" transform="scale(0.015625)"/>
       <path id="DejaVuSans-6c" d="M 603 4863 
L 1178 4863 
L 1178 0 
L 603 0 
L 603 4863 
z
" transform="scale(0.015625)"/>
      </defs>
      <use xlink:href="#DejaVuSans-4c"/>
      <use xlink:href="#DejaVuSans-6f" x="53.962891"/>
      <use xlink:href="#DejaVuSans-73" x="115.144531"/>
      <use xlink:href="#DejaVuSans-73" x="167.244141"/>
      <use xlink:href="#DejaVuSans-20" x="219.34375"/>
      <use xlink:href="#DejaVuSans-56" x="251.130859"/>
      <use xlink:href="#DejaVuSans-61" x="311.789062"/>
      <use xlink:href="#DejaVuSans-6c" x="373.068359"/>
      <use xlink:href="#DejaVuSans-75" x="400.851562"/>
      <use xlink:href="#DejaVuSans-65" x="464.230469"/>
     </g>
    </g>
   </g>
   <g id="line2d_15">
    <path d="M 57.681818 55.8 
L 58.5301 108.307362 
L 59.378382 307.8 
L 60.226665 274.287148 
L 61.074947 188.785533 
L 61.923229 266.224364 
L 62.771511 168.546528 
L 63.619793 257.621817 
L 64.468075 186.123413 
L 65.316358 175.013871 
L 66.16464 252.339735 
L 67.012922 179.416033 
L 67.861204 190.763087 
L 68.709486 232.422722 
L 69.557768 169.913725 
L 70.40605 221.707402 
L 71.254333 202.937031 
L 72.102615 165.35119 
L 72.950897 255.873051 
L 73.799179 189.675188 
L 74.647461 166.932175 
L 75.495743 263.859294 
L 76.344026 188.387779 
L 77.192308 172.480329 
L 78.04059 254.867154 
L 78.888872 181.91987 
L 79.737154 184.658978 
L 80.585436 239.755661 
L 81.433718 172.680568 
L 82.282001 210.75765 
L 83.130283 211.748619 
L 83.978565 165.801382 
L 84.826847 247.405075 
L 85.675129 190.815648 
L 86.523411 165.983008 
L 87.371694 264.688079 
L 88.219976 189.585466 
L 89.068258 170.218249 
L 89.91654 257.935948 
L 90.764822 184.268493 
L 91.613104 179.56185 
L 92.461386 246.111789 
L 93.309669 175.860442 
L 94.157951 200.45234 
L 95.006233 221.736488 
L 95.854515 167.173135 
L 96.702797 236.038299 
L 97.551079 194.614803 
L 98.399362 165.460368 
L 99.247644 262.603685 
L 100.095926 189.788825 
L 100.944208 168.510527 
L 101.79249 260.883444 
L 102.640772 186.263049 
L 103.489054 175.87824 
L 104.337337 250.695207 
L 105.185619 178.765558 
L 106.033901 192.393224 
L 106.882183 230.556311 
L 107.730465 169.315291 
L 108.578747 224.398557 
L 109.427029 201.092908 
L 110.275312 165.318687 
L 111.123594 257.499032 
L 111.971876 189.638038 
L 112.820158 167.187228 
L 113.66844 263.423642 
L 114.516722 188.032878 
L 115.365005 173.044188 
L 116.213287 254.163455 
L 117.061569 181.366743 
L 117.909851 185.947062 
L 118.758133 238.179235 
L 119.606415 172.010074 
L 120.454697 213.198759 
L 121.30298 209.615887 
L 122.151262 165.63204 
L 122.999544 249.587482 
L 123.847826 190.383501 
L 124.696108 166.158475 
L 125.54439 264.709505 
L 126.392673 189.398831 
L 127.240955 170.66962 
L 128.089237 257.272841 
L 128.937519 183.78055 
L 129.785801 180.563978 
L 130.634083 244.8531 
L 131.482365 175.163133 
L 132.330648 202.558131 
L 133.17893 219.572313 
L 134.027212 166.788252 
L 134.875494 238.664989 
L 135.723776 193.509524 
L 136.572058 165.539286 
L 137.420341 263.351701 
L 138.268623 189.817602 
L 139.116905 168.846253 
L 139.965187 260.245844 
L 140.813469 185.846571 
L 141.661751 176.590696 
L 142.510033 249.819149 
L 143.358316 178.160565 
L 144.206598 193.988361 
L 145.05488 228.745346 
L 145.903162 168.795769 
L 146.751444 226.908118 
L 147.599726 199.483429 
L 148.448009 165.319623 
L 149.296291 258.849921 
L 150.144573 189.638265 
L 150.992855 167.455212 
L 151.841137 262.934351 
L 152.689419 187.661726 
L 153.537701 173.628194 
L 154.385984 253.443378 
L 155.234266 180.806264 
L 156.082548 187.281865 
L 156.93083 236.562982 
L 157.779112 171.36533 
L 158.627394 215.657439 
L 159.475676 207.564119 
L 160.323959 165.505366 
L 161.172241 251.609064 
L 162.020523 190.070305 
L 162.868805 166.354817 
L 163.717087 264.598934 
L 164.565369 189.161738 
L 165.413652 171.149754 
L 166.261934 256.60339 
L 167.110216 183.273328 
L 167.958498 181.640417 
L 168.80678 243.503542 
L 169.655062 174.455294 
L 170.503344 204.777111 
L 171.351627 217.358372 
L 172.199909 166.446888 
L 173.048191 241.257516 
L 173.896473 192.551382 
L 174.744755 165.637694 
L 175.593037 263.93972 
L 176.44132 189.813576 
L 177.289602 169.202703 
L 178.137884 259.59758 
L 178.986166 185.419219 
L 179.834448 177.351777 
L 180.68273 248.876761 
L 181.531012 177.537168 
L 182.379295 195.674468 
L 183.227577 226.86547 
L 184.075859 168.301436 
L 184.924141 229.449051 
L 186.620705 165.338433 
L 187.468988 260.074869 
L 188.31727 189.667844 
L 189.165552 167.736025 
L 190.013834 262.397687 
L 190.862116 187.277783 
L 191.710398 174.232547 
L 192.55868 252.704164 
L 193.406963 180.239404 
L 194.255245 188.661859 
L 195.103527 234.911859 
L 195.951809 170.749138 
L 196.800091 218.122842 
L 197.648373 205.606568 
L 198.496656 165.415892 
L 199.344938 253.4679 
L 200.19322 189.856632 
L 201.041502 166.570159 
L 201.889784 264.375361 
L 202.738066 188.881441 
L 203.586348 171.656712 
L 204.434631 255.925961 
L 205.282913 182.749158 
L 206.131195 182.785854 
L 206.979477 242.073677 
L 207.827759 173.746632 
L 208.676041 207.088859 
L 209.524324 215.126865 
L 210.372606 166.153769 
L 211.220888 243.774644 
L 212.06917 191.748817 
L 212.917452 165.75709 
L 213.765734 264.360942 
L 214.614016 189.764519 
L 215.462299 169.582909 
L 216.310581 258.94399 
L 217.158863 184.978174 
L 218.007145 178.171499 
L 218.855427 247.854955 
L 219.703709 176.892322 
L 220.551991 197.467718 
L 221.400274 224.905656 
L 222.248556 167.833135 
L 223.096838 232.026842 
L 224.793402 165.373853 
L 225.641684 261.174654 
L 226.489967 189.714473 
L 227.338249 168.030236 
L 228.186531 261.822284 
L 229.034813 186.883808 
L 229.883095 174.859956 
L 230.731377 251.939211 
L 231.579659 179.665266 
L 232.427942 190.09039 
L 233.276224 233.225096 
L 234.124506 170.161856 
L 234.972788 220.592778 
L 235.82107 203.748375 
L 236.669352 165.357918 
L 237.517635 255.170292 
L 238.365917 189.723568 
L 239.214199 166.802445 
L 240.062481 264.057368 
L 240.910763 188.566191 
L 241.759045 172.187983 
L 242.607327 255.238957 
L 243.45561 182.211157 
L 244.303892 183.993085 
L 245.152174 240.576398 
L 246.000456 173.04686 
L 246.848738 209.469366 
L 247.69702 212.911576 
L 248.545303 165.910743 
L 249.393585 246.179486 
L 250.241867 191.100841 
L 251.090149 165.898542 
L 251.938431 264.616577 
L 252.786713 189.662512 
L 253.634995 169.989839 
L 254.483278 258.28719 
L 255.33156 184.520204 
L 256.179842 179.0591 
L 257.028124 246.742999 
L 257.876406 176.224748 
L 259.572971 222.86001 
L 260.421253 167.393714 
L 261.269535 234.638552 
L 262.117817 195.258491 
L 262.966099 165.425755 
L 263.814381 262.144097 
L 264.662663 189.765103 
L 265.510946 168.339246 
L 266.359228 261.21608 
L 267.20751 186.481061 
L 268.055792 175.515401 
L 268.904074 251.139319 
L 269.752356 179.081493 
L 270.600638 191.575403 
L 271.448921 231.496833 
L 272.297203 169.602401 
L 273.145485 223.07179 
L 273.993767 201.989603 
L 274.842049 165.326282 
L 275.690331 256.726397 
L 276.538614 189.654165 
L 277.386896 167.049828 
L 278.235178 263.661431 
L 279.08346 188.223856 
L 279.931742 172.741214 
L 280.780024 254.54066 
L 281.628306 181.662431 
L 282.476589 185.254903 
L 283.324871 239.024348 
L 284.173153 172.364299 
L 285.021435 211.895305 
L 285.869717 210.742993 
L 286.717999 165.716625 
L 287.566282 248.4445 
L 288.414564 190.597681 
L 289.262846 166.062332 
L 290.111128 264.715652 
L 290.95941 189.504871 
L 291.807692 170.425575 
L 292.655974 257.626684 
L 293.504257 184.042906 
L 294.352539 180.020824 
L 295.200821 245.535241 
L 296.049103 175.536373 
L 296.897385 201.421549 
L 297.745667 220.732889 
L 298.59395 166.988202 
L 299.442232 237.26777 
L 300.290514 194.080711 
L 301.138796 165.494931 
L 301.987078 262.972541 
L 302.83536 189.805459 
L 303.683642 168.665054 
L 304.531925 260.587193 
L 305.380207 186.069592 
L 306.228489 176.205825 
L 307.076771 250.293113 
L 307.925053 178.484834 
L 308.773335 193.128533 
L 309.621618 229.717624 
L 310.4699 169.069309 
L 311.318182 225.568215 
L 311.318182 225.568215 
" clip-path="url(#pd2b958c119)" style="fill: none; stroke: #1f77b4; stroke-width: 1.5; stroke-linecap: square"/>
   </g>
   <g id="patch_3">
    <path d="M 45 320.4 
L 45 43.2 
" style="fill: none; stroke: #000000; stroke-width: 0.8; stroke-linejoin: miter; stroke-linecap: square"/>
   </g>
   <g id="patch_4">
    <path d="M 324 320.4 
L 324 43.2 
" style="fill: none; stroke: #000000; stroke-width: 0.8; stroke-linejoin: miter; stroke-linecap: square"/>
   </g>
   <g id="patch_5">
    <path d="M 45 320.4 
L 324 320.4 
" style="fill: none; stroke: #000000; stroke-width: 0.8; stroke-linejoin: miter; stroke-linecap: square"/>
   </g>
   <g id="patch_6">
    <path d="M 45 43.2 
L 324 43.2 
" style="fill: none; stroke: #000000; stroke-width: 0.8; stroke-linejoin: miter; stroke-linecap: square"/>
   </g>
   <g id="text_17">
    <!-- Loss Vs Number of iterations -->
    <g transform="translate(98.1225 37.2) scale(0.12 -0.12)">
     <defs>
      <path id="DejaVuSans-62" d="M 3116 1747 
Q 3116 2381 2855 2742 
Q 2594 3103 2138 3103 
Q 1681 3103 1420 2742 
Q 1159 2381 1159 1747 
Q 1159 1113 1420 752 
Q 1681 391 2138 391 
Q 2594 391 2855 752 
Q 3116 1113 3116 1747 
z
M 1159 2969 
Q 1341 3281 1617 3432 
Q 1894 3584 2278 3584 
Q 2916 3584 3314 3078 
Q 3713 2572 3713 1747 
Q 3713 922 3314 415 
Q 2916 -91 2278 -91 
Q 1894 -91 1617 61 
Q 1341 213 1159 525 
L 1159 0 
L 581 0 
L 581 4863 
L 1159 4863 
L 1159 2969 
z
" transform="scale(0.015625)"/>
     </defs>
     <use xlink:href="#DejaVuSans-4c"/>
     <use xlink:href="#DejaVuSans-6f" x="53.962891"/>
     <use xlink:href="#DejaVuSans-73" x="115.144531"/>
     <use xlink:href="#DejaVuSans-73" x="167.244141"/>
     <use xlink:href="#DejaVuSans-20" x="219.34375"/>
     <use xlink:href="#DejaVuSans-56" x="251.130859"/>
     <use xlink:href="#DejaVuSans-73" x="319.539062"/>
     <use xlink:href="#DejaVuSans-20" x="371.638672"/>
     <use xlink:href="#DejaVuSans-4e" x="403.425781"/>
     <use xlink:href="#DejaVuSans-75" x="478.230469"/>
     <use xlink:href="#DejaVuSans-6d" x="541.609375"/>
     <use xlink:href="#DejaVuSans-62" x="639.021484"/>
     <use xlink:href="#DejaVuSans-65" x="702.498047"/>
     <use xlink:href="#DejaVuSans-72" x="764.021484"/>
     <use xlink:href="#DejaVuSans-20" x="805.134766"/>
     <use xlink:href="#DejaVuSans-6f" x="836.921875"/>
     <use xlink:href="#DejaVuSans-66" x="898.103516"/>
     <use xlink:href="#DejaVuSans-20" x="933.308594"/>
     <use xlink:href="#DejaVuSans-69" x="965.095703"/>
     <use xlink:href="#DejaVuSans-74" x="992.878906"/>
     <use xlink:href="#DejaVuSans-65" x="1032.087891"/>
     <use xlink:href="#DejaVuSans-72" x="1093.611328"/>
     <use xlink:href="#DejaVuSans-61" x="1134.724609"/>
     <use xlink:href="#DejaVuSans-74" x="1196.003906"/>
     <use xlink:href="#DejaVuSans-69" x="1235.212891"/>
     <use xlink:href="#DejaVuSans-6f" x="1262.996094"/>
     <use xlink:href="#DejaVuSans-6e" x="1324.177734"/>
     <use xlink:href="#DejaVuSans-73" x="1387.556641"/>
    </g>
   </g>
  </g>
 </g>
 <defs>
  <clipPath id="pd2b958c119">
   <rect x="45" y="43.2" width="279" height="277.2"/>
  </clipPath>
 </defs>
</svg>
